#VRML V2.0 utf8
# 3D model generated by kicad-lcsc-manager
# Based on easyeda2kicad.py v1.0.1

Shape{
    appearance Appearance {
        material  Material {
            diffuseColor 0.3176470588235294 0.3176470588235294 0.3176470588235294
            specularColor 0.7529411764705882 0.7529411764705882 0.7529411764705882
            ambientIntensity 1.0
            transparency 1.0
            shininess 0.5
        }
    }
    geometry IndexedFaceSet {
        ccw TRUE
        solid FALSE
        coord DEF co Coordinate {
            point [
                -0.3717 -0.3656 0.0394, -0.3717 -0.3656 0.0315, -0.35 -0.3656 0.0315, -0.35 -0.3656 0.0394, -0.3717 -0.1927 0.0394, -0.3717 -0.1927 0.0315, -0.35 -0.2148 0.0315, -0.242 -0.1927 0.0315, -0.242 -0.2148 0.0315, -0.1808 -0.3325 0.0315, -0.2024 -0.3398 0.0315, -0.188 -0.3214 0.0315, -0.0728 -0.3214 0.0315, -0.0764 -0.3398 0.0315, -0.0944 -0.3214 0.0315, -0.1736 -0.1964 0.0315, -0.1556 -0.2148 0.0315, -0.17 -0.2185 0.0315, -0.1232 -0.2148 0.0315, -0.1052 -0.1964 0.0315, -0.1088 -0.2185 0.0315, -0.0908 -0.2038 0.0315, -0.098 -0.2258 0.0315, -0.1232 -0.1927 0.0315, -0.1556 -0.1927 0.0315, -0.1808 -0.2258 0.0315, -0.188 -0.2038 0.0315, -0.188 -0.2368 0.0315, -0.2024 -0.2185 0.0315, -0.2096 -0.2332 0.0315, -0.1916 -0.2516 0.0315, -0.2096 -0.3251 0.0315, -0.1916 -0.3067 0.0315, -0.2132 -0.3067 0.0315, -0.2132 -0.2516 0.0315, -0.17 -0.3398 0.0315, -0.188 -0.3545 0.0315, -0.1736 -0.3619 0.0315, -0.1556 -0.3435 0.0315, -0.1232 -0.3656 0.0315, -0.1556 -0.3656 0.0315, -0.1232 -0.3435 0.0315, -0.1088 -0.3398 0.0315, -0.1052 -0.3619 0.0315, -0.098 -0.3325 0.0315, -0.0908 -0.3545 0.0315, -0.0764 -0.2185 0.0315, -0.0944 -0.2368 0.0315, -0.0728 -0.2368 0.0315, -0.044 -0.1927 0.0315, -0.0224 -0.2736 0.0315, -0.044 -0.3656 0.0315, -0.0224 -0.2957 0.0315, 0.0856 -0.1927 0.0315, -0.0224 -0.2148 0.0315, 0.0712 -0.2736 0.0315, 0.0712 -0.2957 0.0315, -0.0224 -0.3435 0.0315, 0.0856 -0.3435 0.0315, 0.0856 -0.3656 0.0315, 0.0856 -0.2148 0.0315, 0.2549 -0.2332 0.0315, 0.2369 -0.2516 0.0315, 0.2333 -0.2368 0.0315, 0.2585 -0.2516 0.0315, 0.2369 -0.3067 0.0315, 0.2585 -0.3067 0.0315, 0.2477 -0.3398 0.0315, 0.2261 -0.3325 0.0315, 0.2333 -0.3214 0.0315, 0.2153 -0.3398 0.0315, 0.2333 -0.3545 0.0315, 0.2189 -0.3619 0.0315, 0.2009 -0.3435 0.0315, 0.2009 -0.3656 0.0315, 0.2549 -0.3251 0.0315, 0.136 -0.3435 0.0315, 0.1144 -0.3656 0.0315, 0.136 -0.2148 0.0315, 0.1144 -0.1927 0.0315, 0.2009 -0.2148 0.0315, 0.2189 -0.1964 0.0315, 0.2153 -0.2185 0.0315, 0.2261 -0.2258 0.0315, 0.2333 -0.2038 0.0315, 0.2477 -0.2185 0.0315, 0.2009 -0.1927 0.0315, 0.4313 -0.1927 0.0315, 0.3737 -0.3656 0.0315, 0.3917 -0.2516 0.0315, 0.3233 -0.2368 0.0315, 0.2873 -0.1927 0.0315, 0.3089 -0.1927 0.0315, 0.3269 -0.2516 0.0315, 0.4097 -0.1927 0.0315, 0.3953 -0.2368 0.0315, 0.3449 -0.3656 0.0315, 0.3593 -0.3508 0.0315, -0.35 -0.2148 0.0394, -0.242 -0.2148 0.0394, -0.242 -0.1927 0.0394, -0.0944 -0.2368 0.0394, -0.0728 -0.2368 0.0394, -0.0764 -0.2185 0.0394, -0.0908 -0.2038 0.0394, -0.1052 -0.1964 0.0394, -0.1232 -0.1927 0.0394, -0.1556 -0.1927 0.0394, -0.1736 -0.1964 0.0394, -0.188 -0.2038 0.0394, -0.2024 -0.2185 0.0394, -0.2096 -0.2332 0.0394, -0.2132 -0.2516 0.0394, -0.2132 -0.3067 0.0394, -0.2096 -0.3251 0.0394, -0.2024 -0.3398 0.0394, -0.188 -0.3545 0.0394, -0.1736 -0.3619 0.0394, -0.1556 -0.3656 0.0394, -0.1232 -0.3656 0.0394, -0.1052 -0.3619 0.0394, -0.0908 -0.3545 0.0394, -0.0764 -0.3398 0.0394, -0.0728 -0.3214 0.0394, -0.0944 -0.3214 0.0394, -0.098 -0.3325 0.0394, -0.1088 -0.3398 0.0394, -0.1232 -0.3435 0.0394, -0.1556 -0.3435 0.0394, -0.17 -0.3398 0.0394, -0.1808 -0.3325 0.0394, -0.188 -0.3214 0.0394, -0.1916 -0.3067 0.0394, -0.1916 -0.2516 0.0394, -0.188 -0.2368 0.0394, -0.1808 -0.2258 0.0394, -0.17 -0.2185 0.0394, -0.1556 -0.2148 0.0394, -0.1232 -0.2148 0.0394, -0.1088 -0.2185 0.0394, -0.098 -0.2258 0.0394, -0.0224 -0.2148 0.0394, 0.0856 -0.2148 0.0394, 0.0856 -0.1927 0.0394, -0.044 -0.1927 0.0394, -0.044 -0.3656 0.0394, 0.0856 -0.3656 0.0394, 0.0856 -0.3435 0.0394, -0.0224 -0.3435 0.0394, -0.0224 -0.2957 0.0394, 0.0712 -0.2957 0.0394, 0.0712 -0.2736 0.0394, -0.0224 -0.2736 0.0394, 0.1144 -0.3656 0.0394, 0.2009 -0.3656 0.0394, 0.2189 -0.3619 0.0394, 0.2333 -0.3545 0.0394, 0.2477 -0.3398 0.0394, 0.2549 -0.3251 0.0394, 0.2585 -0.3067 0.0394, 0.2585 -0.2516 0.0394, 0.2549 -0.2332 0.0394, 0.2477 -0.2185 0.0394, 0.2333 -0.2038 0.0394, 0.2189 -0.1964 0.0394, 0.2009 -0.1927 0.0394, 0.1144 -0.1927 0.0394, 0.2009 -0.3435 0.0394, 0.136 -0.3435 0.0394, 0.136 -0.2148 0.0394, 0.2009 -0.2148 0.0394, 0.2153 -0.2185 0.0394, 0.2261 -0.2258 0.0394, 0.2333 -0.2368 0.0394, 0.2369 -0.2516 0.0394, 0.2369 -0.3067 0.0394, 0.2333 -0.3214 0.0394, 0.2261 -0.3325 0.0394, 0.2153 -0.3398 0.0394, 0.3449 -0.3656 0.0394, 0.3737 -0.3656 0.0394, 0.4313 -0.1927 0.0394, 0.4097 -0.1927 0.0394, 0.3953 -0.2368 0.0394, 0.3233 -0.2368 0.0394, 0.3089 -0.1927 0.0394, 0.2873 -0.1927 0.0394, 0.3917 -0.2516 0.0394, 0.3593 -0.3508 0.0394, 0.3269 -0.2516 0.0394
            ]
        }
        coordIndex [
            0,1,2,-1,0,2,3,-1,4,5,1,-1,4,1,0,-1,6,7,8,-1,6,1,5,-1,6,2,1,-1,7,6,5,-1,9,10,11,-1,12,13,14,-1,15,16,17,-1,18,19,20,-1,20,21,22,-1,23,16,24,-1,25,26,17,-1,27,28,25,-1,29,28,27,-1,27,30,29,-1,11,31,32,-1,30,33,34,-1,35,36,9,-1,37,36,35,-1,38,37,35,-1,39,40,41,-1,42,43,41,-1,44,45,42,-1,14,13,44,-1,22,46,47,-1,13,45,44,-1,45,43,42,-1,43,39,41,-1,40,38,41,-1,40,37,38,-1,9,36,10,-1,10,31,11,-1,31,33,32,-1,32,33,30,-1,34,29,30,-1,25,28,26,-1,17,26,15,-1,15,24,16,-1,23,18,16,-1,23,19,18,-1,19,21,20,-1,21,46,22,-1,46,48,47,-1,49,50,51,-1,50,52,51,-1,49,53,54,-1,52,55,56,-1,57,58,59,-1,59,51,57,-1,57,51,52,-1,55,52,50,-1,50,49,54,-1,53,60,54,-1,61,62,63,-1,64,62,61,-1,64,65,62,-1,64,66,65,-1,67,68,69,-1,70,68,71,-1,72,70,71,-1,72,73,70,-1,73,72,74,-1,65,75,69,-1,76,74,77,-1,78,77,79,-1,80,81,82,-1,76,73,74,-1,83,82,84,-1,71,68,67,-1,67,69,75,-1,75,65,66,-1,83,85,63,-1,85,61,63,-1,85,83,84,-1,84,82,81,-1,86,80,78,-1,81,80,86,-1,77,78,76,-1,86,78,79,-1,87,88,89,-1,90,91,92,-1,90,93,91,-1,94,87,95,-1,89,93,95,-1,89,95,87,-1,88,96,97,-1,93,90,95,-1,88,97,89,-1,97,96,93,-1,91,93,96,-1,3,2,6,-1,3,6,98,-1,98,6,8,-1,98,8,99,-1,99,8,7,-1,99,7,100,-1,100,7,5,-1,100,5,4,-1,101,47,48,-1,101,48,102,-1,102,48,46,-1,102,46,103,-1,103,46,21,-1,103,21,104,-1,104,21,19,-1,104,19,105,-1,105,19,23,-1,105,23,106,-1,106,23,24,-1,106,24,107,-1,107,24,15,-1,107,15,108,-1,108,15,26,-1,108,26,109,-1,109,26,28,-1,109,28,110,-1,110,28,29,-1,110,29,111,-1,111,29,34,-1,111,34,112,-1,112,34,33,-1,112,33,113,-1,113,33,31,-1,113,31,114,-1,114,31,10,-1,114,10,115,-1,115,10,36,-1,115,36,116,-1,116,36,37,-1,116,37,117,-1,117,37,40,-1,117,40,118,-1,118,40,39,-1,118,39,119,-1,119,39,43,-1,119,43,120,-1,120,43,45,-1,120,45,121,-1,121,45,13,-1,121,13,122,-1,122,13,12,-1,122,12,123,-1,123,12,14,-1,123,14,124,-1,124,14,44,-1,124,44,125,-1,125,44,42,-1,125,42,126,-1,126,42,41,-1,126,41,127,-1,127,41,38,-1,127,38,128,-1,128,38,35,-1,128,35,129,-1,129,35,9,-1,129,9,130,-1,130,9,11,-1,130,11,131,-1,131,11,32,-1,131,32,132,-1,132,32,30,-1,132,30,133,-1,133,30,27,-1,133,27,134,-1,134,27,25,-1,134,25,135,-1,135,25,17,-1,135,17,136,-1,136,17,16,-1,136,16,137,-1,137,16,18,-1,137,18,138,-1,138,18,20,-1,138,20,139,-1,139,20,22,-1,139,22,140,-1,140,22,47,-1,140,47,101,-1,141,54,60,-1,141,60,142,-1,142,60,53,-1,142,53,143,-1,143,53,49,-1,143,49,144,-1,144,49,51,-1,144,51,145,-1,145,51,59,-1,145,59,146,-1,146,59,58,-1,146,58,147,-1,147,58,57,-1,147,57,148,-1,148,57,52,-1,148,52,149,-1,149,52,56,-1,149,56,150,-1,150,56,55,-1,150,55,151,-1,151,55,50,-1,151,50,152,-1,152,50,54,-1,152,54,141,-1,153,77,74,-1,153,74,154,-1,154,74,72,-1,154,72,155,-1,155,72,71,-1,155,71,156,-1,156,71,67,-1,156,67,157,-1,157,67,75,-1,157,75,158,-1,158,75,66,-1,158,66,159,-1,159,66,64,-1,159,64,160,-1,160,64,61,-1,160,61,161,-1,161,61,85,-1,161,85,162,-1,162,85,84,-1,162,84,163,-1,163,84,81,-1,163,81,164,-1,164,81,86,-1,164,86,165,-1,165,86,79,-1,165,79,166,-1,166,79,77,-1,166,77,153,-1,167,73,76,-1,167,76,168,-1,168,76,78,-1,168,78,169,-1,169,78,80,-1,169,80,170,-1,170,80,82,-1,170,82,171,-1,171,82,83,-1,171,83,172,-1,172,83,63,-1,172,63,173,-1,173,63,62,-1,173,62,174,-1,174,62,65,-1,174,65,175,-1,175,65,69,-1,175,69,176,-1,176,69,68,-1,176,68,177,-1,177,68,70,-1,177,70,178,-1,178,70,73,-1,178,73,167,-1,179,96,88,-1,179,88,180,-1,180,88,87,-1,180,87,181,-1,181,87,94,-1,181,94,182,-1,182,94,95,-1,182,95,183,-1,183,95,90,-1,183,90,184,-1,184,90,92,-1,184,92,185,-1,185,92,91,-1,185,91,186,-1,186,91,96,-1,186,96,179,-1,187,89,97,-1,187,97,188,-1,188,97,93,-1,188,93,189,-1,189,93,89,-1,189,89,187,-1,
        ]
    }
}
Shape{
    appearance Appearance {
        material  Material {
            diffuseColor 0.9019607843137255 0.8823529411764706 0.8431372549019608
            specularColor 0.7529411764705882 0.7529411764705882 0.7529411764705882
            ambientIntensity 1.0
            transparency 1.0
            shininess 0.5
        }
    }
    geometry IndexedFaceSet {
        ccw TRUE
        solid FALSE
        coord DEF co Coordinate {
            point [
                0.2009 -0.3656 0.0394, 0.3449 -0.3656 0.0394, 1.3622 -1.1535 0.0394, 0.3737 -0.3656 0.0394, 0.4313 -0.1927 0.0394, 1.3622 0.3031 0.0394, -0.0944 -0.2368 0.0394, -0.1232 -0.2148 0.0394, -0.098 -0.2258 0.0394, 0.3089 -0.1927 0.0394, 0.2873 -0.1927 0.0394, -0.044 -0.1927 0.0394, -1.3622 0.3031 0.0394, 0.4097 -0.1927 0.0394, 0.3953 -0.2368 0.0394, 0.3233 -0.2368 0.0394, 0.1144 -0.3656 0.0394, 0.0856 -0.3656 0.0394, 0.2009 -0.1927 0.0394, 0.2189 -0.1964 0.0394, 0.1144 -0.1927 0.0394, 0.2333 -0.2038 0.0394, 0.2549 -0.2332 0.0394, 0.2477 -0.2185 0.0394, 0.2585 -0.2516 0.0394, 0.2585 -0.3067 0.0394, 0.2549 -0.3251 0.0394, 0.2477 -0.3398 0.0394, 0.2333 -0.3545 0.0394, 0.2189 -0.3619 0.0394, -0.0224 -0.2148 0.0394, 0.0712 -0.2736 0.0394, -0.0224 -0.2736 0.0394, -0.1556 -0.2148 0.0394, 0.0712 -0.2957 0.0394, -0.0224 -0.2957 0.0394, -0.0224 -0.3435 0.0394, 0.0856 -0.3435 0.0394, -0.044 -0.3656 0.0394, -1.3622 -1.1535 0.0394, 0.0856 -0.2148 0.0394, 0.0856 -0.1927 0.0394, -0.1088 -0.2185 0.0394, -0.0764 -0.2185 0.0394, -0.0908 -0.2038 0.0394, -0.188 -0.3545 0.0394, -0.35 -0.3656 0.0394, -0.2024 -0.3398 0.0394, -0.188 -0.2038 0.0394, -0.242 -0.1927 0.0394, -0.1736 -0.1964 0.0394, -0.1808 -0.2258 0.0394, -0.17 -0.2185 0.0394, -0.1232 -0.1927 0.0394, -0.1052 -0.1964 0.0394, -0.188 -0.2368 0.0394, -0.242 -0.2148 0.0394, -0.2024 -0.2185 0.0394, -0.3717 -0.3656 0.0394, -0.1916 -0.2516 0.0394, -0.3717 -0.1927 0.0394, -0.1916 -0.3067 0.0394, -0.0944 -0.3214 0.0394, -0.35 -0.2148 0.0394, -0.2132 -0.3067 0.0394, -0.098 -0.3325 0.0394, -0.1088 -0.3398 0.0394, -0.1232 -0.3435 0.0394, -0.1556 -0.3435 0.0394, -0.1808 -0.3325 0.0394, -0.17 -0.3398 0.0394, -0.188 -0.3214 0.0394, -0.0728 -0.3214 0.0394, -0.0728 -0.2368 0.0394, -0.0764 -0.3398 0.0394, -0.0908 -0.3545 0.0394, -0.1232 -0.3656 0.0394, -0.1052 -0.3619 0.0394, -0.1556 -0.3656 0.0394, -0.1736 -0.3619 0.0394, -0.2132 -0.2516 0.0394, -0.1556 -0.1927 0.0394, -0.2096 -0.2332 0.0394, -0.2096 -0.3251 0.0394, 0.2369 -0.3067 0.0394, 0.2333 -0.3214 0.0394, 0.2261 -0.3325 0.0394, 0.2369 -0.2516 0.0394, 0.2009 -0.2148 0.0394, 0.2153 -0.2185 0.0394, 0.2153 -0.3398 0.0394, 0.2261 -0.2258 0.0394, 0.2333 -0.2368 0.0394, 0.2009 -0.3435 0.0394, 0.136 -0.3435 0.0394, 0.136 -0.2148 0.0394, 0.3269 -0.2516 0.0394, 0.3917 -0.2516 0.0394, 0.3593 -0.3508 0.0394, 0.1457 0.3031 0.0984, 0.248 0.3031 0.0984, 0.5394 0.3031 0.0984, 0.6417 0.3031 0.0984, 1.3622 0.3031 0.0984, 1.0354 0.3031 0.0984, 0.5394 0.3031 0.2362, 0.6417 0.3031 0.2362, 0.248 0.3031 0.2362, 0.1457 0.3031 0.2362, -0.1457 0.3031 0.0984, -0.1457 0.3031 0.2362, -0.248 0.3031 0.0984, -0.248 0.3031 0.2362, -0.5394 0.3031 0.0984, -0.5394 0.3031 0.2362, -0.6417 0.3031 0.0984, -0.6417 0.3031 0.2362, -0.9331 0.3031 0.0984, -0.9331 0.3031 0.2362, -1.0354 0.3031 0.0984, -1.0354 0.3031 0.2362, -1.3622 0.3031 0.0984, 0.9331 0.3031 0.0984, 1.0354 0.3031 0.2362, 0.9331 0.3031 0.2362, -1.6339 0.3031 1.2402, -0.9331 0.3031 1.0039, -1.0354 0.3031 1.0039, 1.3622 0.3031 0.7677, 1.4803 0.3031 0.7677, 1.3622 0.3031 0.6102, 1.6339 0.3031 1.2402, 1.4803 0.3031 1.0039, 1.3622 0.3031 1.0039, 1.2533 0.3031 1.0039, 1.1444 0.3031 1.0039, 1.6339 0.3031 0.1772, 1.0354 0.3031 1.0039, 1.4803 0.3031 0.6102, -1.4803 0.3031 0.6102, -1.6339 0.3031 0.1772, -1.4803 0.3031 0.7677, 1.4803 0.3031 0.1772, -1.4803 0.3031 0.1772, -0.1457 0.3031 1.0039, -0.248 0.3031 1.0039, -1.0236 0.3031 0.8846, -1.0236 0.3031 0.7082, -0.5394 0.3031 1.0039, -0.6417 0.3031 1.0039, -1.3622 0.3031 0.7677, -1.3622 0.3031 0.6102, -0.6299 0.3031 0.7082, -0.6299 0.3031 0.8846, -1.4803 0.3031 1.0039, -1.3622 0.3031 1.0039, -1.1444 0.3031 1.0039, -1.2533 0.3031 1.0039, 0.248 0.3031 1.0039, 0.1457 0.3031 1.0039, -1.0354 0.3031 0.4724, -0.2362 0.3031 0.8846, -0.2362 0.3031 0.7082, -0.6417 0.3031 0.4724, 0.1575 0.3031 0.8846, 0.1575 0.3031 0.7082, -0.248 0.3031 0.4724, 0.6417 0.3031 1.0039, 0.5394 0.3031 1.0039, 0.5512 0.3031 0.8846, 0.5512 0.3031 0.7082, 0.1457 0.3031 0.4724, 0.9449 0.3031 0.7082, 0.9331 0.3031 0.4724, 0.9331 0.3031 1.0039, 0.9449 0.3031 0.8846, 0.5394 0.3031 0.4724, 1.0236 0.3031 0.7082, 1.0354 0.3031 0.4724, 1.0236 0.3031 0.8846, 0.6299 0.3031 0.7082, 0.6417 0.3031 0.4724, 0.6299 0.3031 0.8846, 0.2362 0.3031 0.7082, 0.248 0.3031 0.4724, 0.2362 0.3031 0.8846, -0.1575 0.3031 0.7082, -0.1457 0.3031 0.4724, -0.1575 0.3031 0.8846, -0.5512 0.3031 0.7082, -0.5394 0.3031 0.4724, -0.5512 0.3031 0.8846, -0.9449 0.3031 0.7082, -0.9331 0.3031 0.4724, -0.9449 0.3031 0.8846, 0.9331 0.0276 0.2362, 1.0354 0.0276 0.2362, -1.2992 -1.1142 0.2362, -0.6417 0.0276 0.2362, -0.9331 0.0276 0.2362, 1.2992 -1.1142 0.2362, 1.2992 0.0276 0.2362, -1.0354 0.0276 0.2362, -1.2992 0.0276 0.2362, -0.5394 0.0276 0.2362, -0.248 0.0276 0.2362, -0.1457 0.0276 0.2362, 0.1457 0.0276 0.2362, 0.248 0.0276 0.2362, 0.5394 0.0276 0.2362, 0.6417 0.0276 0.2362, 0.6299 0.0276 0.721, 0.5512 0.0276 0.721, 0.6417 0.0276 0.4724, -0.5394 0.0276 0.4724, -0.5512 0.0276 0.721, -0.6299 0.0276 0.721, -1.0354 0.0276 0.4724, -1.0236 0.0276 0.721, -0.2362 0.0276 0.721, -0.248 0.0276 0.4724, -0.1457 0.0276 0.4724, -0.1575 0.0276 0.721, -0.9331 0.0276 0.4724, -0.6417 0.0276 0.4724, 0.2362 0.0276 0.8846, 1.2992 0.0276 1.0433, 0.1575 0.0276 0.8846, 0.9449 0.0276 0.8846, 0.6299 0.0276 0.8846, 0.9449 0.0276 0.721, 0.5512 0.0276 0.8846, 0.248 0.0276 0.4724, 0.5394 0.0276 0.4724, 0.2362 0.0276 0.721, 0.1457 0.0276 0.4724, 1.0354 0.0276 0.4724, -1.2992 0.0276 1.0433, 0.9331 0.0276 0.4724, 1.0236 0.0276 0.8846, 1.0236 0.0276 0.721, 0.1575 0.0276 0.721, -1.0236 0.0276 0.8846, -0.9449 0.0276 0.721, -0.1575 0.0276 0.8846, -0.2362 0.0276 0.8846, -0.5512 0.0276 0.8846, -0.6299 0.0276 0.8846, -0.9449 0.0276 0.8846, 1.0354 0.4606 0.0984, 1.0354 0.4606 1.0039, 0.9331 0.4606 1.0039, 0.9331 0.4606 0.0984, -1.1142 0.5394 1.0039, -1.3622 0.5394 1.0039, -1.0354 0.4606 1.0039, -0.6417 0.4606 1.0039, -0.8543 0.5394 1.0039, -0.9331 0.4606 1.0039, -0.7205 0.5394 1.0039, -0.248 0.4606 1.0039, -0.4606 0.5394 1.0039, -0.5394 0.4606 1.0039, -0.3268 0.5394 1.0039, 0.1457 0.4606 1.0039, -0.0669 0.5394 1.0039, -0.1457 0.4606 1.0039, 0.0669 0.5394 1.0039, 0.5394 0.4606 1.0039, 0.3268 0.5394 1.0039, 0.248 0.4606 1.0039, 0.4606 0.5394 1.0039, 1.3622 0.5394 1.0039, 1.1142 0.5394 1.0039, 0.7205 0.5394 1.0039, 0.6417 0.4606 1.0039, 0.8543 0.5394 1.0039, -1.1142 0.5394 0.0984, -1.0354 0.4606 0.0984, -1.3622 0.5394 0.0984, -0.6417 0.4606 0.0984, -0.9331 0.4606 0.0984, -0.7205 0.5394 0.0984, -0.8543 0.5394 0.0984, -0.248 0.4606 0.0984, -0.5394 0.4606 0.0984, -0.3268 0.5394 0.0984, -0.4606 0.5394 0.0984, 0.1457 0.4606 0.0984, -0.1457 0.4606 0.0984, 0.0669 0.5394 0.0984, -0.0669 0.5394 0.0984, 0.5394 0.4606 0.0984, 0.248 0.4606 0.0984, 0.4606 0.5394 0.0984, 0.3268 0.5394 0.0984, 1.1142 0.5394 0.0984, 1.3622 0.5394 0.0984, 0.6417 0.4606 0.0984, 0.8543 0.5394 0.0984, 0.7205 0.5394 0.0984, -1.3622 -0.0906 0.7677, -1.3622 -0.3816 0.6102, -1.3622 -0.3816 0.1772, -1.3622 -1.0748 0.6102, -1.3622 -0.6371 0.6102, -1.3622 -1.0748 0.1772, -1.3622 -0.6371 0.1772, -1.3622 -1.1535 0.1772, -1.3622 -0.0906 1.0039, -1.4803 -0.0906 1.0039, -1.4803 -0.0906 0.7677, -1.4803 -1.0748 0.6102, -1.4803 -0.6371 0.6102, -1.4803 -0.3816 0.6102, -1.4803 -1.0748 0.1772, -1.4803 -0.6371 0.1772, -1.4803 -0.3816 0.1772, -1.6339 -1.1535 0.1772, -1.6339 -1.1535 1.2402, 1.6339 -1.1535 1.2402, 1.6339 -1.1535 0.1772, 1.4803 -0.3816 0.1772, 1.4803 -0.6371 0.1772, 1.3622 -0.3816 0.1772, 1.3622 -0.6371 0.1772, 1.4803 -1.0748 0.1772, 1.3622 -1.1535 0.1772, 1.3622 -1.0748 0.1772, 1.4803 -0.6371 0.6102, 1.4803 -1.0748 0.6102, 1.3622 -1.0748 0.6102, 1.3622 -0.6371 0.6102, 1.4803 -0.3816 0.6102, 1.3622 -0.3816 0.6102, 1.3622 -0.0906 1.0039, 1.3622 -0.0906 0.7677, 1.4803 -0.0906 0.7677, 1.4803 -0.0906 1.0039, 1.3386 -1.1535 0.1969, -1.4567 -1.1535 0.6102, -1.3386 -1.1535 0.9252, -1.3386 -1.1535 1.0827, -1.4567 -1.1535 0.9252, 1.3386 -1.1535 1.0827, 1.3386 -1.1535 0.9252, 1.4567 -1.1535 0.9252, -1.3386 -1.1535 0.1969, 1.4567 -1.1535 0.6102, 1.3386 -1.1535 0.6102, -1.3386 -1.1535 0.6102, -1.4173 -1.1142 0.8858, -1.2992 -1.1142 0.8858, -1.2992 -1.1142 1.0433, 1.2992 -1.1142 1.0433, 1.2992 -0.1299 0.8858, 1.2992 -1.1142 0.8858, 1.2992 -1.1142 0.6496, 1.2992 -0.1299 0.6496, -1.2992 -1.1142 0.6496, -1.2992 -0.1299 0.6496, -1.2992 -0.1299 0.8858, -1.4173 -1.1142 0.6496, -1.4173 -0.1299 0.6496, -1.4173 -0.1299 0.8858, 1.4173 -0.1299 0.6496, 1.4173 -0.1299 0.8858, 1.4173 -1.1142 0.8858, 1.4173 -1.1142 0.6496
            ]
        }
        coordIndex [
            0,1,2,-1,3,4,5,-1,6,7,8,-1,9,10,5,-1,11,12,5,-1,5,13,9,-1,9,14,15,-1,9,13,14,-1,4,13,5,-1,1,3,2,-1,5,2,3,-1,16,2,17,-1,18,10,19,-1,5,10,18,-1,5,18,20,-1,10,21,19,-1,10,22,23,-1,10,23,21,-1,22,10,24,-1,10,1,24,-1,1,25,24,-1,1,26,25,-1,1,27,26,-1,1,28,27,-1,0,29,1,-1,1,29,28,-1,16,0,2,-1,30,31,32,-1,7,6,33,-1,16,31,20,-1,16,34,31,-1,35,34,36,-1,16,17,37,-1,34,37,36,-1,16,37,34,-1,17,2,38,-1,2,39,38,-1,40,31,30,-1,5,20,41,-1,5,41,11,-1,31,40,20,-1,20,40,41,-1,7,42,8,-1,11,43,44,-1,45,46,47,-1,48,49,50,-1,51,52,33,-1,53,11,54,-1,6,51,33,-1,55,51,6,-1,56,48,57,-1,49,48,56,-1,58,39,12,-1,55,6,59,-1,58,12,60,-1,61,59,62,-1,63,64,46,-1,65,66,67,-1,67,68,62,-1,69,68,70,-1,65,67,62,-1,68,69,62,-1,62,69,71,-1,71,61,62,-1,59,6,62,-1,72,62,6,-1,73,11,38,-1,38,74,72,-1,75,74,38,-1,38,76,77,-1,75,38,77,-1,38,39,76,-1,39,78,76,-1,78,46,79,-1,79,46,45,-1,64,63,80,-1,49,81,50,-1,12,81,49,-1,11,53,12,-1,12,53,81,-1,11,44,54,-1,73,72,6,-1,38,72,73,-1,11,73,43,-1,56,80,63,-1,56,82,80,-1,12,49,60,-1,57,82,56,-1,46,64,83,-1,39,46,78,-1,83,47,46,-1,39,58,46,-1,84,85,86,-1,87,88,89,-1,84,86,90,-1,87,91,92,-1,89,91,87,-1,87,84,88,-1,93,88,84,-1,94,95,93,-1,84,90,93,-1,93,95,88,-1,96,97,98,-1,99,100,5,-1,101,102,5,-1,103,5,104,-1,101,105,106,-1,107,99,108,-1,99,12,109,-1,5,12,99,-1,106,102,101,-1,110,111,112,-1,12,113,111,-1,12,111,109,-1,107,100,99,-1,114,115,116,-1,115,12,117,-1,12,115,113,-1,110,109,111,-1,118,119,120,-1,12,121,119,-1,5,100,101,-1,114,113,115,-1,117,12,119,-1,118,117,119,-1,102,122,5,-1,122,123,104,-1,5,122,104,-1,124,123,122,-1,125,126,127,-1,128,129,130,-1,131,132,133,-1,134,135,131,-1,134,131,133,-1,129,131,136,-1,131,135,137,-1,130,129,138,-1,139,140,141,-1,136,142,138,-1,140,125,141,-1,138,129,136,-1,143,140,139,-1,131,129,132,-1,144,145,125,-1,127,146,147,-1,148,149,125,-1,139,150,151,-1,152,149,153,-1,125,154,141,-1,139,141,150,-1,125,155,154,-1,156,125,127,-1,125,156,157,-1,125,157,155,-1,149,126,125,-1,131,158,159,-1,147,160,127,-1,148,125,145,-1,145,161,162,-1,152,163,149,-1,131,144,125,-1,159,164,165,-1,166,145,162,-1,131,159,144,-1,131,167,168,-1,168,169,170,-1,171,159,165,-1,131,168,158,-1,172,173,174,-1,172,174,175,-1,176,168,170,-1,174,167,131,-1,137,174,131,-1,173,177,178,-1,178,177,137,-1,173,172,177,-1,175,137,179,-1,137,175,174,-1,177,179,137,-1,176,180,181,-1,181,180,167,-1,176,170,180,-1,169,167,182,-1,167,169,168,-1,180,182,167,-1,171,183,184,-1,184,183,158,-1,171,165,183,-1,164,158,185,-1,158,164,159,-1,183,185,158,-1,166,186,187,-1,187,186,144,-1,166,162,186,-1,161,144,188,-1,144,161,145,-1,186,188,144,-1,163,189,190,-1,190,189,148,-1,163,152,189,-1,153,148,191,-1,148,153,149,-1,189,191,148,-1,160,192,193,-1,193,192,126,-1,160,147,192,-1,146,126,194,-1,126,146,127,-1,192,194,126,-1,195,196,123,-1,197,198,199,-1,200,201,196,-1,195,200,196,-1,195,123,124,-1,197,202,203,-1,202,118,120,-1,118,202,199,-1,197,199,202,-1,198,197,204,-1,198,114,116,-1,114,198,204,-1,204,197,205,-1,205,197,206,-1,205,110,112,-1,110,205,206,-1,206,197,207,-1,197,200,207,-1,207,107,108,-1,107,207,208,-1,200,208,207,-1,200,209,208,-1,209,106,105,-1,106,209,210,-1,200,210,209,-1,200,195,210,-1,211,212,213,-1,214,215,216,-1,203,217,218,-1,203,202,217,-1,219,215,220,-1,221,222,219,-1,223,199,198,-1,198,224,223,-1,225,226,227,-1,228,229,230,-1,214,204,205,-1,205,220,214,-1,229,226,231,-1,232,233,234,-1,221,206,207,-1,207,235,221,-1,196,201,236,-1,226,237,227,-1,232,208,209,-1,233,232,209,-1,236,230,238,-1,228,239,226,-1,213,210,195,-1,238,213,195,-1,239,240,226,-1,226,240,201,-1,213,238,211,-1,238,230,211,-1,236,240,230,-1,240,236,201,-1,212,234,233,-1,228,226,229,-1,225,212,231,-1,234,241,232,-1,212,233,213,-1,230,229,211,-1,241,222,235,-1,231,226,225,-1,220,215,214,-1,222,221,235,-1,241,235,232,-1,212,225,234,-1,218,242,237,-1,224,216,243,-1,241,227,244,-1,227,237,244,-1,219,220,221,-1,241,244,222,-1,203,218,237,-1,244,237,245,-1,219,245,246,-1,245,237,246,-1,216,224,214,-1,219,246,215,-1,243,223,224,-1,246,237,247,-1,216,247,248,-1,247,237,248,-1,243,218,223,-1,216,248,243,-1,223,218,217,-1,248,237,242,-1,123,196,236,-1,249,104,123,-1,250,178,137,-1,249,178,250,-1,178,249,123,-1,236,178,123,-1,173,236,238,-1,173,178,236,-1,173,251,174,-1,195,173,238,-1,251,173,252,-1,124,173,195,-1,173,124,252,-1,252,124,122,-1,157,253,254,-1,253,157,255,-1,155,157,254,-1,255,157,156,-1,156,127,255,-1,256,257,258,-1,149,258,126,-1,257,256,259,-1,256,258,149,-1,260,261,262,-1,145,262,148,-1,261,260,263,-1,260,262,145,-1,264,265,266,-1,159,266,144,-1,265,264,267,-1,264,266,159,-1,268,269,270,-1,168,270,158,-1,269,268,271,-1,268,270,168,-1,134,133,272,-1,273,250,134,-1,135,250,137,-1,135,134,250,-1,273,134,272,-1,251,274,275,-1,174,275,167,-1,274,251,276,-1,251,275,174,-1,277,255,278,-1,255,277,253,-1,121,278,119,-1,278,121,277,-1,121,279,277,-1,280,117,281,-1,117,280,115,-1,280,281,282,-1,281,283,282,-1,284,113,285,-1,113,284,111,-1,284,285,286,-1,285,287,286,-1,288,109,289,-1,109,288,99,-1,288,289,290,-1,289,291,290,-1,292,100,293,-1,100,292,101,-1,292,293,294,-1,293,295,294,-1,296,103,249,-1,296,297,103,-1,103,104,249,-1,252,102,298,-1,102,252,122,-1,252,298,299,-1,298,300,299,-1,253,279,254,-1,279,253,277,-1,259,283,257,-1,283,259,282,-1,263,287,261,-1,287,263,286,-1,267,291,265,-1,291,267,290,-1,271,295,269,-1,295,271,294,-1,272,297,296,-1,272,296,273,-1,276,300,274,-1,300,276,299,-1,301,155,150,-1,302,151,303,-1,279,151,254,-1,304,305,306,-1,151,150,254,-1,306,307,39,-1,303,12,39,-1,39,307,303,-1,308,306,39,-1,305,307,306,-1,121,12,303,-1,151,121,303,-1,151,279,121,-1,150,155,254,-1,155,301,309,-1,154,155,309,-1,309,310,154,-1,141,154,310,-1,310,311,141,-1,150,141,311,-1,311,301,150,-1,311,310,309,-1,311,309,301,-1,312,305,304,-1,305,312,313,-1,314,151,302,-1,151,314,139,-1,315,316,313,-1,313,312,315,-1,317,303,307,-1,317,318,140,-1,308,315,306,-1,317,140,143,-1,318,317,316,-1,315,308,318,-1,318,316,315,-1,307,316,317,-1,316,307,305,-1,305,313,316,-1,303,317,314,-1,314,302,303,-1,317,143,139,-1,139,314,317,-1,125,318,319,-1,318,125,140,-1,125,320,131,-1,320,125,319,-1,320,321,136,-1,320,136,131,-1,136,322,142,-1,322,323,324,-1,136,321,322,-1,325,324,323,-1,326,327,328,-1,321,323,322,-1,327,326,321,-1,321,326,323,-1,326,329,323,-1,329,326,330,-1,328,331,330,-1,328,330,326,-1,332,330,331,-1,332,329,330,-1,333,334,130,-1,130,138,333,-1,323,332,325,-1,332,323,329,-1,335,128,133,-1,103,297,130,-1,324,325,2,-1,272,128,130,-1,324,103,130,-1,328,2,325,-1,328,327,2,-1,334,324,130,-1,324,2,5,-1,331,325,332,-1,331,328,325,-1,103,324,5,-1,272,130,297,-1,133,128,272,-1,335,336,128,-1,128,337,129,-1,337,128,336,-1,129,338,132,-1,338,129,337,-1,132,338,335,-1,132,335,133,-1,337,336,335,-1,335,338,337,-1,2,327,339,-1,340,319,318,-1,341,342,343,-1,344,345,346,-1,2,339,347,-1,308,347,318,-1,339,348,349,-1,343,342,319,-1,347,350,340,-1,319,344,320,-1,319,342,344,-1,346,320,344,-1,320,346,348,-1,321,348,339,-1,320,348,321,-1,343,319,340,-1,39,2,347,-1,339,327,321,-1,347,308,39,-1,347,340,318,-1,341,351,352,-1,351,341,343,-1,353,341,352,-1,341,353,342,-1,344,342,353,-1,344,353,354,-1,354,353,237,-1,237,226,354,-1,355,356,354,-1,200,357,358,-1,226,358,355,-1,354,226,355,-1,226,201,358,-1,200,358,201,-1,200,349,357,-1,349,200,339,-1,347,200,197,-1,200,347,339,-1,350,347,197,-1,350,197,359,-1,360,237,361,-1,197,360,359,-1,361,353,352,-1,203,237,360,-1,361,237,353,-1,360,197,203,-1,362,359,360,-1,360,363,362,-1,362,340,350,-1,362,350,359,-1,343,362,351,-1,362,343,340,-1,351,362,363,-1,363,364,351,-1,352,351,364,-1,364,361,352,-1,364,363,360,-1,364,360,361,-1,355,365,366,-1,365,355,358,-1,367,356,355,-1,355,366,367,-1,367,346,345,-1,367,345,356,-1,345,344,354,-1,345,354,356,-1,348,367,368,-1,367,348,346,-1,349,368,357,-1,368,349,348,-1,357,368,365,-1,365,358,357,-1,368,367,366,-1,366,365,368,-1,324,333,322,-1,333,324,334,-1,138,142,322,-1,138,322,333,-1,306,315,312,-1,312,304,306,-1,282,256,280,-1,256,282,259,-1,163,256,149,-1,198,163,224,-1,256,163,280,-1,116,163,198,-1,163,116,280,-1,280,116,115,-1,163,214,224,-1,163,190,214,-1,114,204,214,-1,285,113,114,-1,262,190,148,-1,285,190,262,-1,190,285,114,-1,214,190,114,-1,261,285,262,-1,285,261,287,-1,257,281,258,-1,281,257,283,-1,118,199,223,-1,281,117,118,-1,258,193,126,-1,281,193,258,-1,193,281,118,-1,223,193,118,-1,223,217,160,-1,160,193,223,-1,160,255,127,-1,202,160,217,-1,255,160,278,-1,120,160,202,-1,160,120,278,-1,278,120,119,-1,286,260,284,-1,260,286,263,-1,166,260,145,-1,205,166,220,-1,260,166,284,-1,112,166,205,-1,166,112,284,-1,284,112,111,-1,166,221,220,-1,166,187,221,-1,110,206,221,-1,289,109,110,-1,266,187,144,-1,289,187,266,-1,187,289,110,-1,221,187,110,-1,265,289,266,-1,289,265,291,-1,290,264,288,-1,264,290,267,-1,171,264,159,-1,207,171,235,-1,264,171,288,-1,108,171,207,-1,171,108,288,-1,288,108,99,-1,171,232,235,-1,171,184,232,-1,107,208,232,-1,293,100,107,-1,270,184,158,-1,293,184,270,-1,184,293,107,-1,232,184,107,-1,269,293,270,-1,293,269,295,-1,294,268,292,-1,268,294,271,-1,176,268,168,-1,209,176,233,-1,268,176,292,-1,105,176,209,-1,176,105,292,-1,292,105,101,-1,176,213,233,-1,176,181,213,-1,106,210,213,-1,298,102,106,-1,275,181,167,-1,298,181,275,-1,181,298,106,-1,213,181,106,-1,274,298,275,-1,298,274,300,-1,273,249,250,-1,249,273,296,-1,299,251,252,-1,251,299,276,-1,
        ]
    }
}
Shape{
    appearance Appearance {
        material  Material {
            diffuseColor 1.0 1.0 1.0
            specularColor 0.7529411764705882 0.7529411764705882 0.7529411764705882
            ambientIntensity 1.0
            transparency 1.0
            shininess 0.5
        }
    }
    geometry IndexedFaceSet {
        ccw TRUE
        solid FALSE
        coord DEF co Coordinate {
            point [
                -0.9449 -0.6668 0.8616, -0.9449 -0.6111 0.8846, -0.9449 -0.6412 0.8786, -0.9449 -0.6838 0.836, -0.9449 -0.6898 0.8059, -0.9449 0.0276 0.8846, -0.9449 0.0276 0.721, -0.9449 -0.6898 0.7542, -0.9449 0.3341 0.8846, -0.9449 0.4486 1.0039, -0.9449 0.3341 1.0039, -0.9449 0.3341 0.7068, -0.9449 0.5165 0.2861, -0.9449 0.5165 0.936, -0.9449 0.3031 0.8846, -0.9449 0.3031 0.7082, -0.9449 0.5114 0.962, -0.9449 0.4966 0.984, -0.9449 0.4746 0.9988, -0.9449 0.8262 0.0815, -0.9449 0.8133 0.1007, -0.9449 0.8307 0.0588, -0.9449 0.5394 0.0, -0.9449 0.6241 0.1181, -0.9449 0.3341 0.2027, -0.9449 0.7941 0.1136, -0.9449 0.7714 0.1181, -0.9449 0.8307 0.0, -1.0236 0.0276 0.721, -1.0236 -0.6898 0.7542, -1.0236 0.3341 0.7068, -1.0236 0.3031 0.7082, -1.0236 -0.6898 0.8059, -1.0236 -0.6838 0.836, -1.0236 -0.6668 0.8616, -1.0236 -0.6111 0.8846, -1.0236 0.0276 0.8846, -1.0236 -0.6412 0.8786, -1.0236 0.3341 0.2027, -1.0236 0.5165 0.2861, -1.0236 0.3341 0.8846, -1.0236 0.3341 1.0039, -1.0236 0.4486 1.0039, -1.0236 0.5165 0.936, -1.0236 0.5114 0.962, -1.0236 0.4966 0.984, -1.0236 0.4746 0.9988, -1.0236 0.8262 0.0815, -1.0236 0.8307 0.0588, -1.0236 0.8133 0.1007, -1.0236 0.6241 0.1181, -1.0236 0.5394 0.0, -1.0236 0.7941 0.1136, -1.0236 0.7714 0.1181, -1.0236 0.8307 0.0, -1.0236 0.3031 0.8846, -0.5512 -0.6668 0.8616, -0.5512 -0.6111 0.8846, -0.5512 -0.6412 0.8786, -0.5512 -0.6838 0.836, -0.5512 -0.6898 0.8059, -0.5512 0.0276 0.8846, -0.5512 0.0276 0.721, -0.5512 -0.6898 0.7542, -0.5512 0.3341 0.8846, -0.5512 0.4486 1.0039, -0.5512 0.3341 1.0039, -0.5512 0.3341 0.7068, -0.5512 0.5165 0.2861, -0.5512 0.5165 0.936, -0.5512 0.3031 0.8846, -0.5512 0.3031 0.7082, -0.5512 0.5114 0.962, -0.5512 0.4966 0.984, -0.5512 0.4746 0.9988, -0.5512 0.8262 0.0815, -0.5512 0.8133 0.1007, -0.5512 0.8307 0.0588, -0.5512 0.5394 0.0, -0.5512 0.6241 0.1181, -0.5512 0.3341 0.2027, -0.5512 0.7941 0.1136, -0.5512 0.7714 0.1181, -0.5512 0.8307 0.0, -0.6299 0.0276 0.721, -0.6299 -0.6898 0.7542, -0.6299 0.3341 0.7068, -0.6299 0.3031 0.7082, -0.6299 -0.6898 0.8059, -0.6299 -0.6838 0.836, -0.6299 -0.6668 0.8616, -0.6299 -0.6111 0.8846, -0.6299 0.0276 0.8846, -0.6299 -0.6412 0.8786, -0.6299 0.3341 0.2027, -0.6299 0.5165 0.2861, -0.6299 0.3341 0.8846, -0.6299 0.3341 1.0039, -0.6299 0.4486 1.0039, -0.6299 0.5165 0.936, -0.6299 0.5114 0.962, -0.6299 0.4966 0.984, -0.6299 0.4746 0.9988, -0.6299 0.8262 0.0815, -0.6299 0.8307 0.0588, -0.6299 0.8133 0.1007, -0.6299 0.6241 0.1181, -0.6299 0.5394 0.0, -0.6299 0.7941 0.1136, -0.6299 0.7714 0.1181, -0.6299 0.8307 0.0, -0.6299 0.3031 0.8846, -0.1575 -0.6668 0.8616, -0.1575 -0.6111 0.8846, -0.1575 -0.6412 0.8786, -0.1575 -0.6838 0.836, -0.1575 -0.6898 0.8059, -0.1575 0.0276 0.8846, -0.1575 0.0276 0.721, -0.1575 -0.6898 0.7542, -0.1575 0.3341 0.8846, -0.1575 0.4486 1.0039, -0.1575 0.3341 1.0039, -0.1575 0.3341 0.7068, -0.1575 0.5165 0.2861, -0.1575 0.5165 0.936, -0.1575 0.3031 0.8846, -0.1575 0.3031 0.7082, -0.1575 0.5114 0.962, -0.1575 0.4966 0.984, -0.1575 0.4746 0.9988, -0.1575 0.8262 0.0815, -0.1575 0.8133 0.1007, -0.1575 0.8307 0.0588, -0.1575 0.5394 0.0, -0.1575 0.6241 0.1181, -0.1575 0.3341 0.2027, -0.1575 0.7941 0.1136, -0.1575 0.7714 0.1181, -0.1575 0.8307 0.0, -0.2362 0.0276 0.721, -0.2362 -0.6898 0.7542, -0.2362 0.3341 0.7068, -0.2362 0.3031 0.7082, -0.2362 -0.6898 0.8059, -0.2362 -0.6838 0.836, -0.2362 -0.6668 0.8616, -0.2362 -0.6111 0.8846, -0.2362 0.0276 0.8846, -0.2362 -0.6412 0.8786, -0.2362 0.3341 0.2027, -0.2362 0.5165 0.2861, -0.2362 0.3341 0.8846, -0.2362 0.3341 1.0039, -0.2362 0.4486 1.0039, -0.2362 0.5165 0.936, -0.2362 0.5114 0.962, -0.2362 0.4966 0.984, -0.2362 0.4746 0.9988, -0.2362 0.8262 0.0815, -0.2362 0.8307 0.0588, -0.2362 0.8133 0.1007, -0.2362 0.6241 0.1181, -0.2362 0.5394 0.0, -0.2362 0.7941 0.1136, -0.2362 0.7714 0.1181, -0.2362 0.8307 0.0, -0.2362 0.3031 0.8846, 0.2362 -0.6668 0.8616, 0.2362 -0.6111 0.8846, 0.2362 -0.6412 0.8786, 0.2362 -0.6838 0.836, 0.2362 -0.6898 0.8059, 0.2362 0.0276 0.8846, 0.2362 0.0276 0.721, 0.2362 -0.6898 0.7542, 0.2362 0.3341 0.8846, 0.2362 0.4486 1.0039, 0.2362 0.3341 1.0039, 0.2362 0.3341 0.7068, 0.2362 0.5165 0.2861, 0.2362 0.5165 0.936, 0.2362 0.3031 0.8846, 0.2362 0.3031 0.7082, 0.2362 0.5114 0.962, 0.2362 0.4966 0.984, 0.2362 0.4746 0.9988, 0.2362 0.8262 0.0815, 0.2362 0.8133 0.1007, 0.2362 0.8307 0.0588, 0.2362 0.5394 0.0, 0.2362 0.6241 0.1181, 0.2362 0.3341 0.2027, 0.2362 0.7941 0.1136, 0.2362 0.7714 0.1181, 0.2362 0.8307 0.0, 0.1575 0.0276 0.721, 0.1575 -0.6898 0.7542, 0.1575 0.3341 0.7068, 0.1575 0.3031 0.7082, 0.1575 -0.6898 0.8059, 0.1575 -0.6838 0.836, 0.1575 -0.6668 0.8616, 0.1575 -0.6111 0.8846, 0.1575 0.0276 0.8846, 0.1575 -0.6412 0.8786, 0.1575 0.3341 0.2027, 0.1575 0.5165 0.2861, 0.1575 0.3341 0.8846, 0.1575 0.3341 1.0039, 0.1575 0.4486 1.0039, 0.1575 0.5165 0.936, 0.1575 0.5114 0.962, 0.1575 0.4966 0.984, 0.1575 0.4746 0.9988, 0.1575 0.8262 0.0815, 0.1575 0.8307 0.0588, 0.1575 0.8133 0.1007, 0.1575 0.6241 0.1181, 0.1575 0.5394 0.0, 0.1575 0.7941 0.1136, 0.1575 0.7714 0.1181, 0.1575 0.8307 0.0, 0.1575 0.3031 0.8846, 0.6299 -0.6668 0.8616, 0.6299 -0.6111 0.8846, 0.6299 -0.6412 0.8786, 0.6299 -0.6838 0.836, 0.6299 -0.6898 0.8059, 0.6299 0.0276 0.8846, 0.6299 0.0276 0.721, 0.6299 -0.6898 0.7542, 0.6299 0.3341 0.8846, 0.6299 0.4486 1.0039, 0.6299 0.3341 1.0039, 0.6299 0.3341 0.7068, 0.6299 0.5165 0.2861, 0.6299 0.5165 0.936, 0.6299 0.3031 0.8846, 0.6299 0.3031 0.7082, 0.6299 0.5114 0.962, 0.6299 0.4966 0.984, 0.6299 0.4746 0.9988, 0.6299 0.8262 0.0815, 0.6299 0.8133 0.1007, 0.6299 0.8307 0.0588, 0.6299 0.5394 0.0, 0.6299 0.6241 0.1181, 0.6299 0.3341 0.2027, 0.6299 0.7941 0.1136, 0.6299 0.7714 0.1181, 0.6299 0.8307 0.0, 0.5512 0.0276 0.721, 0.5512 -0.6898 0.7542, 0.5512 0.3341 0.7068, 0.5512 0.3031 0.7082, 0.5512 -0.6898 0.8059, 0.5512 -0.6838 0.836, 0.5512 -0.6668 0.8616, 0.5512 -0.6111 0.8846, 0.5512 0.0276 0.8846, 0.5512 -0.6412 0.8786, 0.5512 0.3341 0.2027, 0.5512 0.5165 0.2861, 0.5512 0.3341 0.8846, 0.5512 0.3341 1.0039, 0.5512 0.4486 1.0039, 0.5512 0.5165 0.936, 0.5512 0.5114 0.962, 0.5512 0.4966 0.984, 0.5512 0.4746 0.9988, 0.5512 0.8262 0.0815, 0.5512 0.8307 0.0588, 0.5512 0.8133 0.1007, 0.5512 0.6241 0.1181, 0.5512 0.5394 0.0, 0.5512 0.7941 0.1136, 0.5512 0.7714 0.1181, 0.5512 0.8307 0.0, 0.5512 0.3031 0.8846, 1.0236 -0.6668 0.8616, 1.0236 -0.6111 0.8846, 1.0236 -0.6412 0.8786, 1.0236 -0.6838 0.836, 1.0236 -0.6898 0.8059, 1.0236 0.0276 0.8846, 1.0236 0.0276 0.721, 1.0236 -0.6898 0.7542, 1.0236 0.3341 0.8846, 1.0236 0.4486 1.0039, 1.0236 0.3341 1.0039, 1.0236 0.3341 0.7068, 1.0236 0.5165 0.2861, 1.0236 0.5165 0.936, 1.0236 0.3031 0.8846, 1.0236 0.3031 0.7082, 1.0236 0.5114 0.962, 1.0236 0.4966 0.984, 1.0236 0.4746 0.9988, 1.0236 0.8262 0.0815, 1.0236 0.8133 0.1007, 1.0236 0.8307 0.0588, 1.0236 0.5394 0.0, 1.0236 0.6241 0.1181, 1.0236 0.3341 0.2027, 1.0236 0.7941 0.1136, 1.0236 0.7714 0.1181, 1.0236 0.8307 0.0, 0.9449 0.0276 0.721, 0.9449 -0.6898 0.7542, 0.9449 0.3341 0.7068, 0.9449 0.3031 0.7082, 0.9449 -0.6898 0.8059, 0.9449 -0.6838 0.836, 0.9449 -0.6668 0.8616, 0.9449 -0.6111 0.8846, 0.9449 0.0276 0.8846, 0.9449 -0.6412 0.8786, 0.9449 0.3341 0.2027, 0.9449 0.5165 0.2861, 0.9449 0.3341 0.8846, 0.9449 0.3341 1.0039, 0.9449 0.4486 1.0039, 0.9449 0.5165 0.936, 0.9449 0.5114 0.962, 0.9449 0.4966 0.984, 0.9449 0.4746 0.9988, 0.9449 0.8262 0.0815, 0.9449 0.8307 0.0588, 0.9449 0.8133 0.1007, 0.9449 0.6241 0.1181, 0.9449 0.5394 0.0, 0.9449 0.7941 0.1136, 0.9449 0.7714 0.1181, 0.9449 0.8307 0.0, 0.9449 0.3031 0.8846, -1.3819 -0.9192 0.0, -1.4606 -0.9192 0.0, -1.4606 -0.3562 0.0, -1.3819 -0.3562 0.0, -1.3819 0.3547 1.0787, -1.3819 0.4073 1.1005, -1.3819 0.3788 1.0948, -1.3819 0.3229 0.7763, -1.3819 0.5787 0.5943, -1.3819 0.5787 1.0273, -1.3819 -0.6552 0.1659, -1.3819 0.3385 1.0545, -1.3819 -0.2617 0.0766, -1.3819 0.3229 0.5842, -1.3819 -0.3619 0.1659, -1.3819 0.3329 1.026, -1.3819 0.5056 1.1005, -1.3819 0.5573 1.079, -1.3819 0.5732 1.0553, -1.3819 0.5336 1.0949, -1.3819 0.5054 0.5491, -1.3819 0.5054 0.0766, -1.3819 -1.0629 0.5842, -1.3819 -1.0629 0.0916, -1.3819 -0.6552 0.5842, -1.3819 -0.3619 0.5842, -1.3819 -0.0554 0.9892, -1.3819 0.3329 0.9892, -1.3819 -0.0554 0.7763, -1.4606 0.3329 0.9892, -1.4606 -0.0554 0.9892, -1.4606 -0.0554 0.7763, -1.4606 0.3229 0.7763, -1.4606 0.3229 0.5842, -1.4606 -0.3619 0.5842, -1.4606 -0.3619 0.1659, -1.4606 -0.6552 0.1659, -1.4606 -0.6552 0.5842, -1.4606 -1.0629 0.5842, -1.4606 -1.0629 0.0916, -1.4606 0.3547 1.0787, -1.4606 0.3788 1.0948, -1.4606 0.4073 1.1005, -1.4606 0.5787 1.0273, -1.4606 0.5787 0.5943, -1.4606 0.3385 1.0545, -1.4606 0.3329 1.026, -1.4606 0.5056 1.1005, -1.4606 0.5732 1.0553, -1.4606 0.5573 1.079, -1.4606 0.5336 1.0949, -1.4606 0.5054 0.5491, -1.4606 -0.2617 0.0766, -1.4606 0.5054 0.0766, 1.4606 -0.3562 0.0, 1.3819 -0.9192 0.0, 1.3819 -0.3562 0.0, 1.4606 -0.9192 0.0, 1.3819 0.3547 1.0787, 1.3819 0.3788 1.0948, 1.3819 0.4073 1.1005, 1.3819 0.3229 0.7763, 1.3819 0.5787 1.0273, 1.3819 0.5787 0.5943, 1.3819 -0.6552 0.1659, 1.3819 0.3385 1.0545, 1.3819 -1.0629 0.0916, 1.3819 -1.0629 0.5842, 1.3819 0.3329 1.026, 1.3819 -0.0554 0.7763, 1.3819 -0.0554 0.9892, 1.3819 0.5056 1.1005, 1.3819 0.5732 1.0553, 1.3819 0.5573 1.079, 1.3819 0.5336 1.0949, 1.3819 0.3329 0.9892, 1.3819 0.5054 0.5491, 1.3819 0.3229 0.5842, 1.3819 -0.2617 0.0766, 1.3819 0.5054 0.0766, 1.3819 -0.3619 0.1659, 1.3819 -0.6552 0.5842, 1.3819 -0.3619 0.5842, 1.4606 -0.0554 0.9892, 1.4606 0.3329 0.9892, 1.4606 0.3329 1.026, 1.4606 0.3547 1.0787, 1.4606 0.3385 1.0545, 1.4606 0.3788 1.0948, 1.4606 0.4073 1.1005, 1.4606 0.5056 1.1005, 1.4606 0.5573 1.079, 1.4606 0.5336 1.0949, 1.4606 0.5732 1.0553, 1.4606 0.5787 1.0273, 1.4606 0.5787 0.5943, 1.4606 0.5054 0.5491, 1.4606 0.5054 0.0766, 1.4606 -0.2617 0.0766, 1.4606 0.3229 0.7763, 1.4606 -0.6552 0.1659, 1.4606 0.3229 0.5842, 1.4606 -0.3619 0.1659, 1.4606 -1.0629 0.5842, 1.4606 -1.0629 0.0916, 1.4606 -0.6552 0.5842, 1.4606 -0.3619 0.5842, 1.4606 -0.0554 0.7763
            ]
        }
        coordIndex [
            0,1,2,-1,1,0,3,-1,4,5,3,-1,1,3,5,-1,6,5,4,-1,4,7,6,-1,8,9,10,-1,11,12,13,-1,14,15,8,-1,16,17,13,-1,13,18,9,-1,17,18,13,-1,19,20,21,-1,9,8,13,-1,12,22,23,-1,12,24,22,-1,20,25,21,-1,26,27,25,-1,27,21,25,-1,27,26,23,-1,27,23,22,-1,12,11,24,-1,13,8,11,-1,8,15,11,-1,28,7,29,-1,7,28,6,-1,30,11,15,-1,30,15,31,-1,28,29,32,-1,33,34,35,-1,33,36,32,-1,37,35,34,-1,36,33,35,-1,36,28,32,-1,38,30,39,-1,40,41,42,-1,43,39,30,-1,44,43,45,-1,43,42,46,-1,45,43,46,-1,47,48,49,-1,42,43,40,-1,39,50,51,-1,39,51,38,-1,49,48,52,-1,53,52,54,-1,54,52,48,-1,54,50,53,-1,54,51,50,-1,43,30,40,-1,40,30,31,-1,31,55,40,-1,35,1,5,-1,35,5,36,-1,55,8,40,-1,8,55,14,-1,2,34,0,-1,2,1,37,-1,37,34,2,-1,1,35,37,-1,33,0,34,-1,3,33,32,-1,33,3,0,-1,3,32,4,-1,4,32,29,-1,4,29,7,-1,10,41,40,-1,10,40,8,-1,9,42,41,-1,9,41,10,-1,16,45,17,-1,16,13,44,-1,44,45,16,-1,13,43,44,-1,46,17,45,-1,18,46,42,-1,46,18,17,-1,18,42,9,-1,12,39,43,-1,12,43,13,-1,23,50,39,-1,23,39,12,-1,26,53,50,-1,26,50,23,-1,19,49,20,-1,19,21,47,-1,47,49,19,-1,21,48,47,-1,52,20,49,-1,25,52,53,-1,52,25,20,-1,25,53,26,-1,27,54,48,-1,27,48,21,-1,22,51,54,-1,22,54,27,-1,24,38,51,-1,24,51,22,-1,11,30,38,-1,11,38,24,-1,56,57,58,-1,57,56,59,-1,60,61,59,-1,57,59,61,-1,62,61,60,-1,60,63,62,-1,64,65,66,-1,67,68,69,-1,70,71,64,-1,72,73,69,-1,69,74,65,-1,73,74,69,-1,75,76,77,-1,65,64,69,-1,68,78,79,-1,68,80,78,-1,76,81,77,-1,82,83,81,-1,83,77,81,-1,83,82,79,-1,83,79,78,-1,68,67,80,-1,69,64,67,-1,64,71,67,-1,84,63,85,-1,63,84,62,-1,86,67,71,-1,86,71,87,-1,84,85,88,-1,89,90,91,-1,89,92,88,-1,93,91,90,-1,92,89,91,-1,92,84,88,-1,94,86,95,-1,96,97,98,-1,99,95,86,-1,100,99,101,-1,99,98,102,-1,101,99,102,-1,103,104,105,-1,98,99,96,-1,95,106,107,-1,95,107,94,-1,105,104,108,-1,109,108,110,-1,110,108,104,-1,110,106,109,-1,110,107,106,-1,99,86,96,-1,96,86,87,-1,87,111,96,-1,91,57,61,-1,91,61,92,-1,111,64,96,-1,64,111,70,-1,58,90,56,-1,58,57,93,-1,93,90,58,-1,57,91,93,-1,89,56,90,-1,59,89,88,-1,89,59,56,-1,59,88,60,-1,60,88,85,-1,60,85,63,-1,66,97,96,-1,66,96,64,-1,65,98,97,-1,65,97,66,-1,72,101,73,-1,72,69,100,-1,100,101,72,-1,69,99,100,-1,102,73,101,-1,74,102,98,-1,102,74,73,-1,74,98,65,-1,68,95,99,-1,68,99,69,-1,79,106,95,-1,79,95,68,-1,82,109,106,-1,82,106,79,-1,75,105,76,-1,75,77,103,-1,103,105,75,-1,77,104,103,-1,108,76,105,-1,81,108,109,-1,108,81,76,-1,81,109,82,-1,83,110,104,-1,83,104,77,-1,78,107,110,-1,78,110,83,-1,80,94,107,-1,80,107,78,-1,67,86,94,-1,67,94,80,-1,112,113,114,-1,113,112,115,-1,116,117,115,-1,113,115,117,-1,118,117,116,-1,116,119,118,-1,120,121,122,-1,123,124,125,-1,126,127,120,-1,128,129,125,-1,125,130,121,-1,129,130,125,-1,131,132,133,-1,121,120,125,-1,124,134,135,-1,124,136,134,-1,132,137,133,-1,138,139,137,-1,139,133,137,-1,139,138,135,-1,139,135,134,-1,124,123,136,-1,125,120,123,-1,120,127,123,-1,140,119,141,-1,119,140,118,-1,142,123,127,-1,142,127,143,-1,140,141,144,-1,145,146,147,-1,145,148,144,-1,149,147,146,-1,148,145,147,-1,148,140,144,-1,150,142,151,-1,152,153,154,-1,155,151,142,-1,156,155,157,-1,155,154,158,-1,157,155,158,-1,159,160,161,-1,154,155,152,-1,151,162,163,-1,151,163,150,-1,161,160,164,-1,165,164,166,-1,166,164,160,-1,166,162,165,-1,166,163,162,-1,155,142,152,-1,152,142,143,-1,143,167,152,-1,147,113,117,-1,147,117,148,-1,167,120,152,-1,120,167,126,-1,114,146,112,-1,114,113,149,-1,149,146,114,-1,113,147,149,-1,145,112,146,-1,115,145,144,-1,145,115,112,-1,115,144,116,-1,116,144,141,-1,116,141,119,-1,122,153,152,-1,122,152,120,-1,121,154,153,-1,121,153,122,-1,128,157,129,-1,128,125,156,-1,156,157,128,-1,125,155,156,-1,158,129,157,-1,130,158,154,-1,158,130,129,-1,130,154,121,-1,124,151,155,-1,124,155,125,-1,135,162,151,-1,135,151,124,-1,138,165,162,-1,138,162,135,-1,131,161,132,-1,131,133,159,-1,159,161,131,-1,133,160,159,-1,164,132,161,-1,137,164,165,-1,164,137,132,-1,137,165,138,-1,139,166,160,-1,139,160,133,-1,134,163,166,-1,134,166,139,-1,136,150,163,-1,136,163,134,-1,123,142,150,-1,123,150,136,-1,168,169,170,-1,169,168,171,-1,172,173,171,-1,169,171,173,-1,174,173,172,-1,172,175,174,-1,176,177,178,-1,179,180,181,-1,182,183,176,-1,184,185,181,-1,181,186,177,-1,185,186,181,-1,187,188,189,-1,177,176,181,-1,180,190,191,-1,180,192,190,-1,188,193,189,-1,194,195,193,-1,195,189,193,-1,195,194,191,-1,195,191,190,-1,180,179,192,-1,181,176,179,-1,176,183,179,-1,196,175,197,-1,175,196,174,-1,198,179,183,-1,198,183,199,-1,196,197,200,-1,201,202,203,-1,201,204,200,-1,205,203,202,-1,204,201,203,-1,204,196,200,-1,206,198,207,-1,208,209,210,-1,211,207,198,-1,212,211,213,-1,211,210,214,-1,213,211,214,-1,215,216,217,-1,210,211,208,-1,207,218,219,-1,207,219,206,-1,217,216,220,-1,221,220,222,-1,222,220,216,-1,222,218,221,-1,222,219,218,-1,211,198,208,-1,208,198,199,-1,199,223,208,-1,203,169,173,-1,203,173,204,-1,223,176,208,-1,176,223,182,-1,170,202,168,-1,170,169,205,-1,205,202,170,-1,169,203,205,-1,201,168,202,-1,171,201,200,-1,201,171,168,-1,171,200,172,-1,172,200,197,-1,172,197,175,-1,178,209,208,-1,178,208,176,-1,177,210,209,-1,177,209,178,-1,184,213,185,-1,184,181,212,-1,212,213,184,-1,181,211,212,-1,214,185,213,-1,186,214,210,-1,214,186,185,-1,186,210,177,-1,180,207,211,-1,180,211,181,-1,191,218,207,-1,191,207,180,-1,194,221,218,-1,194,218,191,-1,187,217,188,-1,187,189,215,-1,215,217,187,-1,189,216,215,-1,220,188,217,-1,193,220,221,-1,220,193,188,-1,193,221,194,-1,195,222,216,-1,195,216,189,-1,190,219,222,-1,190,222,195,-1,192,206,219,-1,192,219,190,-1,179,198,206,-1,179,206,192,-1,224,225,226,-1,225,224,227,-1,228,229,227,-1,225,227,229,-1,230,229,228,-1,228,231,230,-1,232,233,234,-1,235,236,237,-1,238,239,232,-1,240,241,237,-1,237,242,233,-1,241,242,237,-1,243,244,245,-1,233,232,237,-1,236,246,247,-1,236,248,246,-1,244,249,245,-1,250,251,249,-1,251,245,249,-1,251,250,247,-1,251,247,246,-1,236,235,248,-1,237,232,235,-1,232,239,235,-1,252,231,253,-1,231,252,230,-1,254,235,239,-1,254,239,255,-1,252,253,256,-1,257,258,259,-1,257,260,256,-1,261,259,258,-1,260,257,259,-1,260,252,256,-1,262,254,263,-1,264,265,266,-1,267,263,254,-1,268,267,269,-1,267,266,270,-1,269,267,270,-1,271,272,273,-1,266,267,264,-1,263,274,275,-1,263,275,262,-1,273,272,276,-1,277,276,278,-1,278,276,272,-1,278,274,277,-1,278,275,274,-1,267,254,264,-1,264,254,255,-1,255,279,264,-1,259,225,229,-1,259,229,260,-1,279,232,264,-1,232,279,238,-1,226,258,224,-1,226,225,261,-1,261,258,226,-1,225,259,261,-1,257,224,258,-1,227,257,256,-1,257,227,224,-1,227,256,228,-1,228,256,253,-1,228,253,231,-1,234,265,264,-1,234,264,232,-1,233,266,265,-1,233,265,234,-1,240,269,241,-1,240,237,268,-1,268,269,240,-1,237,267,268,-1,270,241,269,-1,242,270,266,-1,270,242,241,-1,242,266,233,-1,236,263,267,-1,236,267,237,-1,247,274,263,-1,247,263,236,-1,250,277,274,-1,250,274,247,-1,243,273,244,-1,243,245,271,-1,271,273,243,-1,245,272,271,-1,276,244,273,-1,249,276,277,-1,276,249,244,-1,249,277,250,-1,251,278,272,-1,251,272,245,-1,246,275,278,-1,246,278,251,-1,248,262,275,-1,248,275,246,-1,235,254,262,-1,235,262,248,-1,280,281,282,-1,281,280,283,-1,284,285,283,-1,281,283,285,-1,286,285,284,-1,284,287,286,-1,288,289,290,-1,291,292,293,-1,294,295,288,-1,296,297,293,-1,293,298,289,-1,297,298,293,-1,299,300,301,-1,289,288,293,-1,292,302,303,-1,292,304,302,-1,300,305,301,-1,306,307,305,-1,307,301,305,-1,307,306,303,-1,307,303,302,-1,292,291,304,-1,293,288,291,-1,288,295,291,-1,308,287,309,-1,287,308,286,-1,310,291,295,-1,310,295,311,-1,308,309,312,-1,313,314,315,-1,313,316,312,-1,317,315,314,-1,316,313,315,-1,316,308,312,-1,318,310,319,-1,320,321,322,-1,323,319,310,-1,324,323,325,-1,323,322,326,-1,325,323,326,-1,327,328,329,-1,322,323,320,-1,319,330,331,-1,319,331,318,-1,329,328,332,-1,333,332,334,-1,334,332,328,-1,334,330,333,-1,334,331,330,-1,323,310,320,-1,320,310,311,-1,311,335,320,-1,315,281,285,-1,315,285,316,-1,335,288,320,-1,288,335,294,-1,282,314,280,-1,282,281,317,-1,317,314,282,-1,281,315,317,-1,313,280,314,-1,283,313,312,-1,313,283,280,-1,283,312,284,-1,284,312,309,-1,284,309,287,-1,290,321,320,-1,290,320,288,-1,289,322,321,-1,289,321,290,-1,296,325,297,-1,296,293,324,-1,324,325,296,-1,293,323,324,-1,326,297,325,-1,298,326,322,-1,326,298,297,-1,298,322,289,-1,292,319,323,-1,292,323,293,-1,303,330,319,-1,303,319,292,-1,306,333,330,-1,306,330,303,-1,299,329,300,-1,299,301,327,-1,327,329,299,-1,301,328,327,-1,332,300,329,-1,305,332,333,-1,332,305,300,-1,305,333,306,-1,307,334,328,-1,307,328,301,-1,302,331,334,-1,302,334,307,-1,304,318,331,-1,304,331,302,-1,291,310,318,-1,291,318,304,-1,336,337,338,-1,336,338,339,-1,340,341,342,-1,343,344,345,-1,339,346,336,-1,340,347,341,-1,348,349,350,-1,341,347,351,-1,352,341,345,-1,353,352,354,-1,355,352,353,-1,354,352,345,-1,345,341,351,-1,344,349,356,-1,348,357,349,-1,350,346,339,-1,346,358,359,-1,358,346,360,-1,350,349,361,-1,359,336,346,-1,348,350,339,-1,349,357,356,-1,349,344,343,-1,362,343,363,-1,343,362,364,-1,351,363,345,-1,345,363,343,-1,363,365,366,-1,363,366,362,-1,362,366,367,-1,362,367,364,-1,364,367,368,-1,364,368,343,-1,343,368,369,-1,343,369,349,-1,349,369,370,-1,349,370,361,-1,361,370,371,-1,361,371,350,-1,350,371,372,-1,350,372,346,-1,346,372,373,-1,346,373,360,-1,360,373,374,-1,360,374,358,-1,358,374,375,-1,358,375,359,-1,359,375,337,-1,359,337,336,-1,376,377,378,-1,368,379,380,-1,338,337,372,-1,378,381,376,-1,375,374,372,-1,381,378,382,-1,368,367,366,-1,379,378,383,-1,384,383,385,-1,383,384,379,-1,386,385,383,-1,382,378,379,-1,382,379,365,-1,380,387,369,-1,388,369,389,-1,371,338,372,-1,373,372,374,-1,388,371,369,-1,371,370,369,-1,375,372,337,-1,388,338,371,-1,369,387,389,-1,369,368,380,-1,368,365,379,-1,368,366,365,-1,339,338,388,-1,339,388,348,-1,348,388,389,-1,348,389,357,-1,357,389,387,-1,357,387,356,-1,356,387,380,-1,356,380,344,-1,344,380,379,-1,344,379,345,-1,354,385,353,-1,354,345,384,-1,384,385,354,-1,345,379,384,-1,386,353,385,-1,355,386,383,-1,386,355,353,-1,355,383,352,-1,352,383,378,-1,352,378,341,-1,342,376,340,-1,342,341,377,-1,377,376,342,-1,341,378,377,-1,381,340,376,-1,347,381,382,-1,381,347,340,-1,347,382,351,-1,351,382,365,-1,351,365,363,-1,390,391,392,-1,390,393,391,-1,394,395,396,-1,397,398,399,-1,392,391,400,-1,396,401,394,-1,402,403,400,-1,401,396,404,-1,397,405,406,-1,398,396,407,-1,408,407,409,-1,407,408,398,-1,410,409,407,-1,404,396,398,-1,404,398,411,-1,399,412,413,-1,414,413,415,-1,416,392,400,-1,417,400,403,-1,414,416,413,-1,416,418,413,-1,402,400,391,-1,414,392,416,-1,413,412,415,-1,413,397,399,-1,397,411,398,-1,397,406,411,-1,419,411,406,-1,419,420,411,-1,420,404,411,-1,420,421,404,-1,422,394,401,-1,404,423,401,-1,422,401,423,-1,421,423,404,-1,424,394,422,-1,395,424,425,-1,424,395,394,-1,395,425,396,-1,425,407,396,-1,425,426,407,-1,427,409,410,-1,407,428,410,-1,427,410,428,-1,426,428,407,-1,429,409,427,-1,408,429,430,-1,429,408,409,-1,408,430,398,-1,430,399,398,-1,430,431,399,-1,431,412,399,-1,431,432,412,-1,432,415,412,-1,432,433,415,-1,433,414,415,-1,433,434,414,-1,434,392,414,-1,434,390,392,-1,422,425,424,-1,435,431,430,-1,390,436,393,-1,422,423,425,-1,434,437,438,-1,425,423,421,-1,426,425,430,-1,427,426,429,-1,428,426,427,-1,429,426,430,-1,430,425,421,-1,431,437,432,-1,434,433,437,-1,438,436,390,-1,436,439,440,-1,439,436,441,-1,438,437,442,-1,440,393,436,-1,434,438,390,-1,437,433,432,-1,437,431,435,-1,419,435,420,-1,435,419,443,-1,421,420,430,-1,430,420,435,-1,393,402,391,-1,393,440,402,-1,440,403,402,-1,440,439,403,-1,439,417,403,-1,439,441,417,-1,441,400,417,-1,441,436,400,-1,436,416,400,-1,436,438,416,-1,438,418,416,-1,438,442,418,-1,442,413,418,-1,442,437,413,-1,437,397,413,-1,437,435,397,-1,435,405,397,-1,435,443,405,-1,443,406,405,-1,443,419,406,-1,
        ]
    }
}